<svg xmlns="http://www.w3.org/2000/svg" xmlns:xlink="http://www.w3.org/1999/xlink" viewBox="0 0 1600 400" width="1600" height="400" role="img" aria-label="Heurex horizontal lockup">
  <defs>
    <path id="hex" d="M 0 -48 L 41.5692 -24 L 41.5692 24 L 0 48 L -41.5692 24 L -41.5692 -24 Z" fill="none" stroke="#E2E8F0" stroke-width="3.6"></path>
    <!-- Pattern shifted via x and y to align the top-most central hexagon at x=200, y=80 (top vertex at 200,32) -->
    <pattern id="honeycomb-pattern" x="33.7232" y="80" width="83.1384" height="144" patternUnits="userSpaceOnUse">
      <use href="#hex" x="0" y="0"></use>
      <use href="#hex" x="41.5692" y="72"></use>
      <use href="#hex" x="83.1384" y="0"></use>
      <use href="#hex" x="0" y="144"></use>
      <use href="#hex" x="83.1384" y="144"></use>
    </pattern>
  </defs>

  <g transform="translate(40,20) scale(0.9)">
    <!-- Solid white background inside the main hexagon -->
    <polygon fill="#FFFFFF" points="200,32 345.5,116 345.5,284 200,368 54.5,284 54.5,116"></polygon>

    <!-- Honeycomb pattern backdrop overlay -->
    <polygon fill="url(#honeycomb-pattern)" points="200,32 345.5,116 345.5,284 200,368 54.5,284 54.5,116"></polygon>

    <!-- Hexagon border -->
    <polygon fill="none" stroke="#1A1F4D" stroke-width="14" stroke-linejoin="round" points="200,32 345.5,116 345.5,284 200,368 54.5,284 54.5,116"></polygon>

    <!-- Mascot inside the hexagon (filled with white to mask the background honeycomb) -->
    <g fill="#FFFFFF" stroke="#1A1F4D" stroke-width="14" stroke-linecap="round">
      <circle cx="200" cy="150" r="38"></circle>
      <circle cx="200" cy="238" r="50"></circle>
      <line x1="153" y1="238" x2="247" y2="238" stroke="#C9A961" stroke-width="13" stroke-linecap="round" fill="none"></line>
    </g>
    <circle cx="219" cy="150" r="15" fill="none" stroke="#C9A961" stroke-width="11"></circle>
  </g>

  <g fill="#1A1F4D">
    <path d="M14.44759206798867 150.0V0.0H47.804532577903686V58.42776203966005H107.29461756373938V0.0H140.8640226628895V150.0H107.29461756373938V87.32294617563738H47.804532577903686V150.0Z" transform="translate(450, 128)"></path>
    <path d="M14.44759206798867 150.0V0.0H121.10481586402267V28.682719546742206H47.804532577903686V59.49008498583569H114.73087818696884V87.32294617563738H47.804532577903686V121.10481586402267H122.1671388101983V150.0Z" transform="translate(620, 128)"></path>
    <path d="M74.78753541076487 152.3371104815864Q56.303116147308785 152.3371104815864 42.17422096317281 144.36968838526911Q28.045325779036826 136.40226628895184 20.077903682719548 122.59206798866856Q12.110481586402267 108.78186968838527 12.110481586402267 90.93484419263456V0.0H45.67988668555241V92.8470254957507Q45.67988668555241 106.44475920679886 54.07223796033995 114.19971671388102Q62.46458923512748 121.95467422096317 74.78753541076487 121.95467422096317Q87.3229461756374 121.95467422096317 95.39660056657223 114.19971671388102Q103.47025495750708 106.44475920679886 103.47025495750708 93.05949008498584V0.0H137.03966005665723V91.1473087818697Q137.03966005665723 108.9943342776204 129.17847025495752 122.80453257790369Q121.3172804532578 136.61473087818698 107.29461756373938 144.47592067988668Q93.27195467422096 152.3371104815864 74.78753541076487 152.3371104815864Z" transform="translate(766, 128)"></path>
    <path d="M14.44759206798867 150.0V0.0H75.63739376770539Q90.5099150141643 0.0 101.77053824362606 5.630311614730871Q113.03116147308782 11.260623229461743 119.40509915014164 21.24645892351274Q125.77903682719547 31.23229461756374 125.77903682719547 44.19263456090651Q125.77903682719547 61.18980169971671 115.36827195467421 72.55665722379604Q104.95750708215297 83.92351274787535 87.53541076487252 87.11048158640227L135.55240793201133 150.0H96.03399433427762L51.41643059490085 88.1728045325779H47.804532577903686V150.0ZM71.81303116147309 25.920679886685548H47.804532577903686V63.52691218130312H71.60056657223797Q81.58640226628896 63.52691218130312 87.0042492917847 58.42776203966006Q92.42209631728045 53.328611898017 92.42209631728045 44.61756373937676Q92.42209631728045 36.54390934844193 87.0042492917847 31.23229461756374Q81.58640226628896 25.920679886685548 71.81303116147309 25.920679886685548Z" transform="translate(930, 128)"></path>
    <path d="M14.44759206798867 150.0V0.0H121.10481586402267V28.682719546742206H47.804532577903686V59.49008498583569H114.73087818696884V87.32294617563738H47.804532577903686V121.10481586402267H122.1671388101983V150.0Z" transform="translate(1083, 128)"></path>
  </g>
  <g transform="translate(1222,128)">
    <path fill="#C9A961" d="M 6,0 L 46,0 L 100,68 L 154,0 L 194,0 L 124,90 L 110,90 L 96,90 Z"></path>
    <path fill="#C9A961" d="M 6,150 L 46,150 L 100,82 L 154,150 L 194,150 L 124,60 L 96,60 Z"></path>
    <polygon fill="#1A1F4D" points="100,60 116,68 116,82 100,90 84,82 84,68"></polygon>
  </g>
</svg>